<svg height='300px' width='300px'  fill="#000000" xmlns:dc="http://purl.org/dc/elements/1.1/" xmlns:cc="http://creativecommons.org/ns#" xmlns:rdf="http://www.w3.org/1999/02/22-rdf-syntax-ns#" xmlns:svg="http://www.w3.org/2000/svg" xmlns="http://www.w3.org/2000/svg" xmlns:sodipodi="http://sodipodi.sourceforge.net/DTD/sodipodi-0.dtd" xmlns:inkscape="http://www.inkscape.org/namespaces/inkscape" version="1.1" x="0px" y="0px" viewBox="0 0 100 100"><g transform="translate(0,-952.36218)"><path style="text-indent:0;text-transform:none;direction:ltr;block-progression:tb;baseline-shift:baseline;color:#000000;enable-background:accumulate;" d="m 50,957.86222 c -5.46667,0 -11.44367,1.82131 -16.25,4.625 -4.80633,2.80369 -8.75,6.6369 -8.75,11.375 0,4 2.79036,6.66331 6.125,8 0.1365,2.60689 0.26239,5.08169 0.4375,7.3125 -0.73852,0.26447 -1.48881,0.83552 -1.90625,1.53125 C 28.79702,992.13803 29,993.36222 29,994.86222 c 0,2.41511 1.4382,5.08392 4.40625,6.46868 0.14653,0.5497 0.26948,1.097 0.4375,1.625 1.86529,5.8624 5.2356,10.3305 10.96875,14.5 0.33909,0.2571 0.76198,0.4018 1.1875,0.4063 l 8,0 c 0.42552,0 0.84841,-0.1492 1.1875,-0.4063 5.70109,-4.1462 9.09522,-8.3705 10.96875,-14.125 0.21719,-0.6671 0.38082,-1.356 0.5625,-2.0625 C 69.60242,999.86733 71,997.24337 71,994.86222 c 0,-1.5 0.20298,-2.72419 -0.65625,-4.15625 -0.41246,-0.68743 -1.14512,-1.26253 -1.875,-1.53125 0.16763,-2.25776 0.3043,-4.78614 0.4375,-7.46875 C 72.23744,980.27234 75,977.86222 75,973.86222 c 0,-4.7381 -3.94367,-8.57131 -8.75,-11.375 -4.80633,-2.80369 -10.78333,-4.625 -16.25,-4.625 z m 0,4 c 4.53333,0 10.05633,1.64744 14.25,4.09375 4.19367,2.44631 6.75,5.64435 6.75,7.90625 0,2 -1.38365,2.99597 -2.8125,3.78125 -5.30402,-2.92064 -12.00415,-4.28125 -18.6875,-4.28125 -6.55473,0 -13.12116,1.319 -18.375,4.125 -1.40099,-0.85024 -2.125,-1.80841 -2.125,-3.625 0,-2.2619 2.55633,-5.45994 6.75,-7.90625 4.19367,-2.44631 9.71667,-4.09375 14.25,-4.09375 z m 0,2 c -3.31368,0 -6,1.3431 -6,3 0,1.6569 2.68632,3 6,3 3.31368,0 6,-1.3431 6,-3 0,-1.6569 -2.68632,-3 -6,-3 z m -0.5,13.5 c 4.28564,0 8.54979,0.64378 12.28125,1.875 l -3.46875,2.625 -16.625,0 -3.5,-2.625 c -0.10809,-0.0735 -0.22341,-0.13643 -0.34375,-0.1875 3.58058,-1.10061 7.60822,-1.6875 11.65625,-1.6875 z m -14.3125,5.3125 c 0.35603,0.0297 0.70558,0.0813 1.0625,0.0937 l 3.5625,2.6875 c 0.33908,0.25713 0.76198,0.40182 1.1875,0.4063 l 18,0 c 0.42552,-0.004 0.84841,-0.14914 1.1875,-0.40625 l 3.59375,-2.6875 c 0.34597,-0.0165 0.70696,-0.0555 1.0625,-0.0937 -0.46423,8.78677 -1.03721,14.94465 -2.5,19.43743 -1.5721,4.8286 -4.11327,8.0599 -9.0625,11.75 l -6.5625,0 c -4.923,-3.6851 -7.48219,-7.1583 -9.0625,-12.125 -1.69093,-6.97452 -2.1531,-13.461 -2.46875,-19.06248 z M 44,987.86222 c -2,0 -4,1 -5,2 l 9,0 c 0,-1 -2,-2 -4,-2 z m 12,0 c -2,0 -4,1 -4,2 l 9,0 c -1,-1 -3,-2 -5,-2 z m -8,14.99998 c -1.89474,0 -4.15789,2 -7,2 1.89474,2 4.10526,2 6,2 l 3.09375,-1 2.90625,1 c 1.89474,0 4.10526,0 6,-2 -2.84211,0 -5.10526,-2 -7,-2 z m -11.21875,12.9687 c -0.9401,1.5668 -4.83591,3.9953 -9.15625,6.0937 -4.32034,2.0985 -8.9433,4.0297 -11.875,6.375 -0.46642,0.3735 -0.75034,0.965 -0.75,1.5625 0,4.2834 1.82175,7.738 4.5625,10.1563 2.74075,2.4183 6.31627,3.8891 10.0625,4.875 7.49246,1.9717 15.875,1.9687 20.375,1.9687 4.5,0 12.88254,0 20.375,-1.9687 3.74623,-0.9859 7.32175,-2.4567 10.0625,-4.875 2.74075,-2.4183 4.5625,-5.8729 4.5625,-10.1563 3.4e-4,-0.5975 -0.28358,-1.189 -0.75,-1.5625 -2.9317,-2.3453 -7.55466,-4.2765 -11.875,-6.375 -4.32034,-2.0984 -8.21615,-4.5269 -9.15625,-6.0937 -0.57617,-0.9676 -2.04464,-1.2488 -2.9375,-0.5625 L 50,1023.2997 39.71875,1015.2684 c -1.25718,-0.739 -1.99721,-0.3458 -2.9375,0.5625 z m 2,3.7813 8.65625,6.75 -3.375,6.1875 L 38,1020.3622 c 0.27404,-0.2452 0.5332,-0.4898 0.78125,-0.75 z m 22.4375,0 c 0.24805,0.2602 0.50721,0.5048 0.78125,0.75 l -6.0625,12.1875 -3.375,-6.1875 z m -26.5,3.125 7.5,15 c 0.32745,0.6427 1.02561,1.0791 1.74685,1.0919 0.72124,0.013 1.43441,-0.3987 1.7844,-1.0294 l 2.25,-4.125 0,9.1562 c -4.66067,-0.031 -11.46886,-0.227 -17.375,-1.7812 -3.37877,-0.8892 -6.36575,-2.2308 -8.40625,-4.0313 -1.79066,-1.58 -2.75187,-3.5522 -3,-6.1562 2.30138,-1.56 6.18177,-3.4133 10.15625,-5.3438 1.86207,-0.9044 3.69036,-1.7897 5.34375,-2.7812 z m 30.5625,0 c 1.65339,0.9915 3.48168,1.8768 5.34375,2.7812 3.97448,1.9305 7.85487,3.7838 10.15625,5.3438 -0.24813,2.604 -1.20934,4.5762 -3,6.1562 -2.0405,1.8005 -5.02748,3.1421 -8.40625,4.0313 -5.90614,1.5542 -12.71433,1.75 -17.375,1.7812 l 0,-9.1562 2.25,4.125 c 0.34999,0.6307 1.06316,1.0422 1.7844,1.0294 0.72124,-0.013 1.4194,-0.4492 1.74685,-1.0919 z" fill="#000000" fill-opacity="1" stroke="none" marker="none" visibility="visible" display="inline" overflow="visible"></path></g></svg>