<svg height='300px' width='300px'  fill="#000000" xmlns="http://www.w3.org/2000/svg" data-name="Layer 1" viewBox="0 0 100 100" x="0px" y="0px"><title>81 all</title><rect x="21.83" y="49.67" width="24.33" height="4"></rect><rect x="21.83" y="62.67" width="35.33" height="4"></rect><rect x="21.83" y="75.67" width="35.33" height="4"></rect><path d="M91.93,80.5V22.75h0a2,2,0,0,0-.62-1.46L71.82,3a2,2,0,0,0-1.37-.52v0H31.08a2,2,0,0,0-2,2v13h-19a2,2,0,0,0-2,2v76a2,2,0,0,0,2,2H68.93a2,2,0,0,0,2-2v-13h19A2,2,0,0,0,91.93,80.5ZM72.45,9.11,84.87,20.75H72.45ZM12.08,93.5v-72H47.45V37.75a2,2,0,0,0,2,2H66.93V93.5ZM51.45,35.75V24.11L63.87,35.75ZM70.93,78.5V64.67h7.24v-4H70.93v-9h7.24v-4H70.93V37.75h0a2,2,0,0,0-.62-1.46L50.82,18a2,2,0,0,0-1.37-.52v0H33.08V6.5H68.45V22.75a2,2,0,0,0,2,2H87.93V78.5Z"></path></svg>