<svg height='300px' width='300px'  fill="#000000" xmlns="http://www.w3.org/2000/svg" xmlns:xlink="http://www.w3.org/1999/xlink" version="1.1" x="0px" y="0px" viewBox="0 0 64 64" enable-background="new 0 0 64 64" xml:space="preserve"><path d="M60.938,9.056h-1.776V4.419c0-0.829-0.672-1.5-1.5-1.5s-1.5,0.671-1.5,1.5v4.637h-4.49V4.419c0-0.829-0.672-1.5-1.5-1.5  s-1.5,0.671-1.5,1.5v4.637h-4.488V4.419c0-0.829-0.672-1.5-1.5-1.5s-1.5,0.671-1.5,1.5v4.637h-4.49V4.419c0-0.829-0.672-1.5-1.5-1.5  s-1.5,0.671-1.5,1.5v4.637h-4.489V4.419c0-0.829-0.671-1.5-1.5-1.5s-1.5,0.671-1.5,1.5v4.637h-4.489V4.419  c0-0.829-0.671-1.5-1.5-1.5s-1.5,0.671-1.5,1.5v4.637h-1.777c-0.829,0-1.5,0.671-1.5,1.5v19.852  C7.661,31.164,1.563,37.734,1.563,45.706c0,8.478,6.897,15.375,15.375,15.375c8.32,0,15.102-6.647,15.352-14.908h28.648  c0.828,0,1.5-0.672,1.5-1.5V10.556C62.438,9.727,61.766,9.056,60.938,9.056z M16.938,58.081c-6.824,0-12.375-5.552-12.375-12.375  s5.551-12.375,12.375-12.375s12.375,5.552,12.375,12.375S23.761,58.081,16.938,58.081z M33.78,19.129h3.657v3.657H33.78V19.129z   M40.438,19.129h3.657v3.657h-3.657V19.129z M47.095,19.129h3.657v3.657h-3.657V19.129z M44.095,36.101h-3.657v-3.656h3.657V36.101z   M37.438,36.101H33.78v-3.656h3.657V36.101z M27.123,25.786h3.657v3.658h-3.657V25.786z M50.752,29.444h-3.657v-3.658h3.657V29.444z   M44.095,29.444h-3.657v-3.658h3.657V29.444z M37.438,29.444H33.78v-3.658h3.657V29.444z M47.095,32.444h3.657v3.656h-3.657V32.444z   M30.78,22.786h-3.657v-3.657h3.657V22.786z M27.123,34.181v-1.736h3.657v3.656H28.97c-0.015,0-0.028,0.004-0.043,0.004  c-0.547-0.681-1.154-1.309-1.808-1.888C27.12,34.205,27.123,34.193,27.123,34.181z M59.438,43.173H32.085  c-0.239-1.435-0.677-2.8-1.286-4.072h1.48h6.657h6.657h6.657c0.828,0,1.5-0.672,1.5-1.5v-6.656v-6.658v-6.657  c0-0.829-0.672-1.5-1.5-1.5h-6.657h-6.657H32.28h-6.657c-0.829,0-1.5,0.671-1.5,1.5v6.657v6.658v1.179  c-1.728-0.918-3.648-1.518-5.686-1.716V12.056h41V43.173z"></path><path d="M18.907,38.058c0-0.828-0.671-1.5-1.5-1.5s-1.5,0.672-1.5,1.5v7.648c0,0.828,0.671,1.5,1.5,1.5h8.668  c0.829,0,1.5-0.672,1.5-1.5s-0.671-1.5-1.5-1.5h-7.168V38.058z"></path></svg>