<svg height='300px' width='300px'  fill="#000000" xmlns="http://www.w3.org/2000/svg" xmlns:xlink="http://www.w3.org/1999/xlink" version="1.1" x="0px" y="0px" viewBox="0 0 100 100" enable-background="new 0 0 100 100" xml:space="preserve"><g><path d="M59.646,7.411H40.354c-3.537,0-6.415,2.878-6.415,6.416v19.292c0,3.537,2.878,6.414,6.415,6.414h19.293   c3.537,0,6.415-2.877,6.415-6.414V13.827C66.062,10.289,63.184,7.411,59.646,7.411z M62.878,33.119c0,1.781-1.449,3.23-3.231,3.23   H40.354c-1.782,0-3.231-1.449-3.231-3.23V13.827c0-1.782,1.449-3.232,3.231-3.232h19.293c1.782,0,3.231,1.45,3.231,3.232V33.119z"></path><path d="M83.759,66.881h0.006c0.878,0,1.589-0.711,1.589-1.589v-5.646c0-3.538-2.878-6.415-6.415-6.415H51.592v-8.877   c0-0.878-0.711-1.589-1.589-1.589h-0.006c-0.878,0-1.589,0.711-1.589,1.589v8.877H21.062c-3.537,0-6.415,2.877-6.415,6.415v5.646   c0,0.878,0.711,1.589,1.589,1.589h0.006c0.878,0,1.589-0.711,1.589-1.589v-5.646c0-1.783,1.448-3.231,3.231-3.231h27.347v8.877   c0,0.878,0.711,1.589,1.589,1.589h0.006c0.878,0,1.589-0.711,1.589-1.589v-8.877h27.347c1.783,0,3.231,1.448,3.231,3.231v5.646   C82.17,66.17,82.881,66.881,83.759,66.881z"></path><path d="M90.193,70.111H77.33c-2.649,0-4.807,2.156-4.807,4.807V87.78c0,2.651,2.157,4.808,4.807,4.808h12.863   c2.65,0,4.807-2.156,4.807-4.808V74.918C95,72.268,92.844,70.111,90.193,70.111z M91.816,87.78c0,0.896-0.729,1.624-1.623,1.624   H77.33c-0.895,0-1.623-0.729-1.623-1.624V74.918c0-0.896,0.729-1.621,1.623-1.621h12.863c0.895,0,1.623,0.726,1.623,1.621V87.78z"></path><path d="M43.568,70.111c-2.649,0-4.807,2.156-4.807,4.807V87.78c0,2.651,2.157,4.808,4.807,4.808h12.863   c2.65,0,4.807-2.156,4.807-4.808V74.918c0-2.65-2.156-4.807-4.807-4.807H43.568z M58.055,74.918V87.78   c0,0.896-0.729,1.624-1.623,1.624H43.568c-0.896,0-1.623-0.729-1.623-1.624V74.918c0-0.896,0.728-1.621,1.623-1.621h12.863   C57.326,73.297,58.055,74.022,58.055,74.918z"></path><path d="M9.807,92.588H22.67c2.649,0,4.807-2.156,4.807-4.808V74.918c0-2.65-2.157-4.807-4.807-4.807H9.807   C7.157,70.111,5,72.268,5,74.918V87.78C5,90.432,7.157,92.588,9.807,92.588z M8.184,74.918c0-0.896,0.728-1.621,1.623-1.621H22.67   c0.896,0,1.623,0.726,1.623,1.621V87.78c0,0.896-0.728,1.624-1.623,1.624H9.807c-0.896,0-1.623-0.729-1.623-1.624V74.918z"></path></g></svg>